HIERARCHY
ROOT Hips
{
	OFFSET 0.000000 0.000000 0.000000 
	CHANNELS 6 Xposition Yposition Zposition Zrotation Yrotation Xrotation
	JOINT LHipJoint
	{
		OFFSET 0.000000 0.000000 0.000000 
		CHANNELS 3 Zrotation Yrotation Xrotation
		JOINT LeftUpLeg
		{
			OFFSET 0.049174 -0.055197 0.022926 
			CHANNELS 3 Zrotation Yrotation Xrotation
			JOINT LeftLeg
			{
				OFFSET 0.075187 -0.206577 0.000000 
				CHANNELS 3 Zrotation Yrotation Xrotation
				JOINT LeftFoot
				{
					OFFSET 0.083177 -0.228528 0.000000 
					CHANNELS 3 Zrotation Yrotation Xrotation
					JOINT LeftToeBase
					{
						OFFSET 0.006522 -0.017919 0.066408 
						CHANNELS 3 Zrotation Yrotation Xrotation
						End Site
						{
							OFFSET 0.000000 -0.000000 0.034549 
						}
					}
				}
			}
		}
	}
	JOINT RHipJoint
	{
		OFFSET 0.000000 0.000000 0.000000 
		CHANNELS 3 Zrotation Yrotation Xrotation
		JOINT RightUpLeg
		{
			OFFSET -0.046656 -0.055197 0.022926 
			CHANNELS 3 Zrotation Yrotation Xrotation
			JOINT RightLeg
			{
				OFFSET -0.076145 -0.209206 0.000000 
				CHANNELS 3 Zrotation Yrotation Xrotation
				JOINT RightFoot
				{
					OFFSET -0.082175 -0.225773 0.000000 
					CHANNELS 3 Zrotation Yrotation Xrotation
					JOINT RightToeBase
					{
						OFFSET -0.008058 -0.022138 0.069332 
						CHANNELS 3 Zrotation Yrotation Xrotation
						End Site
						{
							OFFSET -0.000000 -0.000000 0.036391 
						}
					}
				}
			}
		}
	}
	JOINT LowerBack
	{
		OFFSET 0.000000 0.000000 0.000000 
		CHANNELS 3 Zrotation Yrotation Xrotation
		JOINT Spine
		{
			OFFSET -0.000011 0.066375 -0.007953 
			CHANNELS 3 Zrotation Yrotation Xrotation
			JOINT Spine1
			{
				OFFSET 0.001748 0.066993 -0.001037 
				CHANNELS 3 Zrotation Yrotation Xrotation
				JOINT Neck
				{
					OFFSET 0.000000 0.000000 0.000000 
					CHANNELS 3 Zrotation Yrotation Xrotation
					JOINT Neck1
					{
						OFFSET -0.003073 0.050852 0.007566 
						CHANNELS 3 Zrotation Yrotation Xrotation
						JOINT Head
						{
							OFFSET 0.003390 0.051888 -0.007078 
							CHANNELS 3 Zrotation Yrotation Xrotation
							End Site
							{
								OFFSET 0.001370 0.052583 -0.003294 
							}
						}
					}
				}
				JOINT LeftShoulder
				{
					OFFSET 0.000000 0.000000 0.000000 
					CHANNELS 3 Zrotation Yrotation Xrotation
					JOINT LeftArm
					{
						OFFSET 0.102846 0.024812 -0.021306 
						CHANNELS 3 Zrotation Yrotation Xrotation
						JOINT LeftForeArm
						{
							OFFSET 0.161034 -0.000000 -0.000000 
							CHANNELS 3 Zrotation Yrotation Xrotation
							JOINT LeftHand
							{
								OFFSET 0.117231 -0.000000 -0.000000 
								CHANNELS 3 Zrotation Yrotation Xrotation
								JOINT LeftFingerBase
								{
									OFFSET 0.000000 0.000000 0.000000 
									CHANNELS 3 Zrotation Yrotation Xrotation
									JOINT LeftHandIndex1
									{
										OFFSET 0.016537 -0.000000 0.000000 
										CHANNELS 3 Zrotation Yrotation Xrotation
										End Site
										{
											OFFSET 0.013332 -0.000000 0.000000 
										}
									}
								}
								JOINT LThumb
								{
									OFFSET 0.000000 0.000000 0.000000 
									CHANNELS 3 Zrotation Yrotation Xrotation
									End Site
									{
										OFFSET 0.013536 -0.000000 0.013536 
									}
								}
							}
						}
					}
				}
				JOINT RightShoulder
				{
					OFFSET 0.000000 0.000000 0.000000 
					CHANNELS 3 Zrotation Yrotation Xrotation
					JOINT RightArm
					{
						OFFSET -0.096067 0.033214 -0.013856 
						CHANNELS 3 Zrotation Yrotation Xrotation
						JOINT RightForeArm
						{
							OFFSET -0.165504 -0.000000 0.000000 
							CHANNELS 3 Zrotation Yrotation Xrotation
							JOINT RightHand
							{
								OFFSET -0.117545 -0.000000 -0.000000 
								CHANNELS 3 Zrotation Yrotation Xrotation
								JOINT RightFingerBase
								{
									OFFSET 0.000000 0.000000 0.000000 
									CHANNELS 3 Zrotation Yrotation Xrotation
									JOINT RightHandIndex1
									{
										OFFSET -0.023354 -0.000000 0.000000 
										CHANNELS 3 Zrotation Yrotation Xrotation
										End Site
										{
											OFFSET -0.018828 -0.000000 0.000000 
										}
									}
								}
								JOINT RThumb
								{
									OFFSET 0.000000 0.000000 0.000000 
									CHANNELS 3 Zrotation Yrotation Xrotation
									End Site
									{
										OFFSET -0.019116 -0.000000 0.019116 
									}
								}
							}
						}
					}
				}
			}
		}
	}
}
MOTION
Frames: 7
Frame Time: 0.008333
-0.330872 0.523672 -0.951081 0.841700 -5.563500 1.477000 0.000000 0.000000 0.000000 -15.248700 -4.123600 -19.659201 17.699400 19.872601 83.259697 -0.057100 -4.589000 3.551900 0.437100 -4.242300 -11.759300 0.000000 0.000000 0.000000 28.342699 5.075100 -14.885100 -5.518400 -13.944800 43.016701 -1.352600 -5.671400 -24.673901 -0.001000 0.207000 -0.568800 -5.540900 -1.750800 10.643100 4.565300 -2.750900 -1.320700 8.497100 -1.037800 -6.909600 -12.942900 0.309400 -12.946300 6.375900 1.969900 11.647800 4.289900 0.859600 5.444900 0.000000 -0.000000 0.000000 -92.424103 13.924800 35.643501 113.368500 -57.832500 -80.090500 -0.000000 0.000000 -20.628799 15.221100 13.031500 3.510800 -7.125000 0.000000 -0.000000 -10.993400 43.196499 0.495700 0.000000 -0.000000 0.000000 79.100998 -9.066700 55.750599 -133.473602 51.494701 -96.572701 0.000000 -0.000000 -6.530200 -14.459600 20.591900 -5.182200 7.125000 -0.000000 -0.000000 8.980300 -8.982000 7.564200 
-0.330972 0.523397 -0.939438 0.388900 -5.281000 1.556000 0.000000 0.000000 0.000000 -14.221600 -4.483700 -22.016800 17.880400 19.891899 83.792000 -0.069600 -4.734800 0.914800 0.915100 -6.095100 -17.060600 0.000000 0.000000 0.000000 28.961399 4.447300 -13.190900 -5.345200 -13.762300 42.293499 -1.347000 -6.394500 -25.074600 -0.033200 1.175500 -3.231800 -4.798800 -1.381600 10.615000 4.348800 -2.171200 -1.205600 7.732400 -0.789000 -6.908100 -12.601200 0.133800 -14.253800 7.005600 1.726600 13.072700 4.473000 0.783900 6.131900 0.000000 0.000000 0.000000 -91.593300 14.360500 36.812401 113.862900 -57.735100 -80.508698 -0.000000 0.000000 -20.102600 15.521700 13.237800 3.639100 -7.125000 0.000000 -0.000000 -10.775400 43.437199 0.420800 0.000000 0.000000 0.000000 79.703201 -8.378100 55.365799 -134.654999 50.936401 -97.493698 0.000000 -0.000000 -6.895900 -14.362100 20.985100 -5.239300 7.125000 -0.000000 -0.000000 9.057100 -8.596700 7.700900 
-0.330828 0.523069 -0.927934 -0.105600 -5.218600 1.711800 0.000000 0.000000 0.000000 -13.309900 -4.723500 -24.458700 17.952900 19.899200 84.004997 -0.068600 -4.980000 -0.108000 0.832600 -5.821000 -16.265900 0.000000 0.000000 0.000000 29.533899 4.095200 -11.369800 -5.156400 -13.557700 41.493900 -1.442800 -6.253000 -25.710800 -0.013000 0.737100 -2.025700 -2.071900 0.557600 10.030600 2.216300 0.619700 0.802100 3.398600 0.370700 -4.839200 -8.879700 -2.524600 -21.128599 6.996800 -2.109700 14.012300 3.529500 -0.776500 7.960700 -0.000000 -0.000000 0.000000 -85.851898 9.674400 42.871300 113.041603 -57.895699 -79.813599 -0.000000 0.000000 -21.075800 14.952500 13.084300 3.459800 -7.125000 0.000000 -0.000000 -11.245100 43.221500 0.500300 -0.000000 -0.000000 0.000000 84.565498 -4.380300 49.721401 -135.571503 50.485401 -98.203003 0.000000 -0.000000 -7.102400 -14.024600 20.076099 -4.900700 7.125000 -0.000000 -0.000000 9.241500 -9.550900 7.683300 
-0.330841 0.523612 -0.916422 -0.695000 -5.382500 1.928000 0.000000 0.000000 0.000000 -12.390700 -4.780400 -26.818501 17.903500 19.894300 83.859802 -0.070600 -5.311000 -0.680100 0.761300 -5.572100 -15.547800 0.000000 0.000000 0.000000 30.249001 3.951700 -9.488100 -4.938900 -13.314600 40.557899 -1.411200 -6.621000 -25.704100 -0.019400 0.898600 -2.469800 -1.837400 0.539800 10.101300 2.687000 0.654900 0.180100 3.759900 0.407500 -5.538700 -9.720800 -2.294700 -18.882200 7.219300 -1.780700 13.314200 3.765400 -0.674900 7.332400 -0.000000 -0.000000 0.000000 -86.605103 11.782900 42.212101 114.062698 -57.695000 -80.677597 -0.000000 0.000000 -21.605600 14.103900 12.985100 3.231300 -7.125000 0.000000 -0.000000 -11.973300 43.033001 0.590300 -0.000000 -0.000000 0.000000 83.482201 -4.782900 51.242901 -136.871094 49.818199 -99.200798 0.000000 -0.000000 -7.793100 -13.340500 19.306801 -4.483000 7.125000 -0.000000 -0.000000 9.661700 -10.397700 7.875100 
-0.331075 0.524025 -0.905694 -1.640800 -5.775400 2.197900 0.000000 0.000000 0.000000 -10.967100 -4.613400 -29.465300 17.755100 19.878700 83.423500 -0.084100 -5.813300 -0.779600 0.671600 -5.240700 -14.596400 0.000000 0.000000 0.000000 31.427000 4.091000 -7.597100 -4.702900 -13.041200 39.522701 -1.267300 -7.341400 -25.080900 -0.081900 1.845600 -5.079200 -2.271700 -0.056600 10.620200 4.131900 -0.082800 -1.061300 5.695600 0.136700 -7.095000 -12.067500 -1.202300 -15.002000 7.623300 -0.190600 12.540500 4.417300 -0.045200 6.285700 -0.000000 0.000000 0.000000 -89.644997 15.593400 39.145901 115.288300 -57.440102 -81.712097 -0.000000 0.000000 -21.118700 13.001600 12.701700 2.906300 -7.125000 0.000000 -0.000000 -12.874100 42.636902 0.764400 -0.000000 0.000000 0.000000 80.622002 -6.139300 55.018398 -138.125595 49.141998 -100.154503 0.000000 -0.000000 -8.861700 -13.499500 20.541599 -4.815100 7.125000 -0.000000 -0.000000 9.591600 -9.140500 8.063000 
-0.331037 0.525069 -0.894222 -2.052400 -6.022000 2.458400 0.000000 0.000000 0.000000 -10.413600 -4.718700 -31.691700 17.397600 19.836800 82.371201 -0.088500 -5.945600 -0.767900 0.452700 -4.316300 -11.968300 0.000000 0.000000 0.000000 31.869699 3.782100 -5.747400 -4.435400 -12.718200 38.322701 -1.122700 -7.690900 -24.180500 -0.265900 3.317300 -9.163500 -2.558000 -0.230400 10.639700 4.781100 -0.292800 -1.647000 6.621000 0.090300 -7.712300 -12.881200 -0.625300 -13.502500 7.700600 0.563200 12.442000 4.626400 0.265700 5.920000 0.000000 0.000000 0.000000 -91.200203 17.745001 37.361900 115.958900 -57.293999 -82.276802 -0.000000 0.000000 -21.110800 11.515000 12.412500 2.507400 -7.125000 0.000000 -0.000000 -14.100900 42.202900 0.994800 0.000000 0.000000 0.000000 79.330101 -6.821900 57.072498 -139.225296 48.522202 -100.982399 0.000000 -0.000000 -9.826100 -14.148900 23.163099 -5.662900 7.125000 -0.000000 -0.000000 9.284900 -6.431300 8.298900 
-0.330722 0.527334 -0.880925 -1.691000 -5.859300 2.516900 0.000000 0.000000 0.000000 -11.103500 -5.266100 -32.804501 16.798300 19.752399 80.601601 -0.071300 -5.757400 -1.396000 0.340000 -3.746900 -10.365700 0.000000 0.000000 0.000000 31.259600 2.926700 -3.790500 -4.162200 -12.373200 37.065399 -0.946300 -7.519600 -22.571301 -0.278100 3.391700 -9.371200 -0.619200 1.485900 9.818900 2.528600 2.047600 0.080400 2.697700 1.059800 -5.544500 -9.876200 -2.922400 -20.207800 8.170100 -2.672400 14.093700 4.022300 -0.998100 7.912900 -0.000000 -0.000000 0.000000 -85.844200 13.919700 42.678699 115.134499 -57.472900 -81.582497 -0.000000 0.000000 -22.337500 11.226300 12.323300 2.425700 -7.125000 0.000000 -0.000000 -14.328800 42.087101 1.053500 -0.000000 -0.000000 0.000000 83.579201 -3.689100 52.020000 -139.876999 48.142601 -101.469200 0.000000 -0.000000 -9.944100 -14.095300 22.939899 -5.589700 7.125000 -0.000000 -0.000000 9.307800 -6.662100 8.277800 
